#!OML:ASF F:\VICON\USERDATA\Patient Classification 1\PLAYGROUND\JustinFriday\JustinFriday.ASF
:FULLY-SPECIFIED
:DEGREES
3636
root 15.4672 27.3305 46.7372 -367.414 -162.918 -352.082
lowerback 20.842 -1.22637 -7.53325
upperback -0.266721 -3.13378 9.50569
thorax -11.017 -1.07049 15.8403
lowerneck 5.61842 2.05964 -10.5888
upperneck -7.39535 1.23175 -2.52206
head -3.5009 0.862593 0.975168
rclavicle 1.88845e-014 5.24792e-014
rhumerus 69.9191 13.0703 -64.3509
rradius 68.2373
rwrist 20.4668
rhand -25.798 -19.4779
rfingers 7.12502
rthumb 0.740818 -49.4564
lclavicle 1.88845e-014 5.24792e-014
lhumerus 19.8796 -17.3982 82.9239
lradius 90.9338
lwrist -21.2032
lhand -41.9754 -18.5997
lfingers 7.12502
lthumb -14.8715 10.8465
rfemur -1.78731 -8.64004 35.4846
rtibia 18.8434
rfoot -20.2121 -20.7465
rtoes 29.1531
lfemur -58.5041 16.308 -6.78807
ltibia 107.202
lfoot -35.0344 -12.9683
ltoes -4.62208
3637
root 15.4566 27.3327 46.7481 -367.574 -162.919 -352.088
lowerback 20.6795 -1.28216 -7.53349
upperback -0.282204 -3.20198 9.51236
thorax -10.9262 -1.1102 15.856
lowerneck 5.34507 2.12706 -10.7264
upperneck -6.64152 1.40402 -2.47487
head -3.19424 0.917438 1.00761
rclavicle 2.5345e-014 -7.4743e-014
rhumerus 69.7652 13.3166 -64.4007
rradius 68.1644
rwrist 20.495
rhand -25.7124 -19.2357
rfingers 7.12502
rthumb 0.823541 -49.2139
lclavicle 2.5345e-014 -7.4743e-014
lhumerus 22.5798 -16.4937 82.1682
lradius 91.0197
lwrist -21.0546
lhand -43.516 -19.5754
lfingers 7.12502
lthumb -16.3552 9.75499
rfemur -1.64416 -8.66878 35.4161
rtibia 18.8393
rfoot -19.9777 -20.7185
rtoes 29.0271
lfemur -58.6936 16.0538 -7.02174
ltibia 106.761
lfoot -35.3187 -13.3063
ltoes -6.00158
3638
root 15.452 27.3435 46.7638 -367.889 -163.341 -352.29
lowerback 20.8529 -1.10931 -7.9203
upperback -0.267419 -3.0662 9.49193
thorax -11.0287 -1.01101 16.0429
lowerneck 5.62523 2.26846 -10.6408
upperneck -6.43718 1.55322 -2.70723
head -3.17869 0.989537 0.907465
rclavicle -6.53008e-014 8.26944e-014
rhumerus 69.3957 13.5216 -64.2479
rradius 67.5599
rwrist 20.2031
rhand -26.1015 -18.762
rfingers 7.12502
rthumb 0.447696 -48.7413
lclavicle -6.53008e-014 8.26944e-014
lhumerus 24.894 -15.5498 81.5545
lradius 91.3199
lwrist -20.9711
lhand -44.6203 -19.9748
lfingers 7.12502
lthumb -17.4182 9.26479
rfemur -1.21657 -8.54086 35.1404
rtibia 18.8449
rfoot -19.7671 -20.4877
rtoes 28.6838
lfemur -58.3889 16.2025 -7.27785
ltibia 106.197
lfoot -35.4811 -13.9981
ltoes -6.08739
3639
root 15.4404 27.3579 46.7803 -368.026 -163.395 -352.321
lowerback 20.7388 -1.1443 -7.90008
upperback -0.239675 -3.10647 9.46705
thorax -10.9251 -1.0432 15.9991
lowerneck 5.83243 2.39034 -10.5512
upperneck -6.63294 1.65689 -2.92394
head -3.28698 1.05336 0.813422
rclavicle -6.95746e-015 4.77083e-014
rhumerus 69.2177 13.6586 -64.3881
rradius 67.4161
rwrist 20.1588
rhand -26.0052 -18.5912
rfingers 7.12502
rthumb 0.540722 -48.5703
lclavicle -6.95746e-015 4.77083e-014
lhumerus 27.2826 -14.5931 80.8537
lradius 91.5713
lwrist -20.7274
lhand -45.5406 -20.7693
lfingers 7.12502
lthumb -18.3037 8.38956
rfemur -1.10359 -8.66563 35.0081
rtibia 18.851
rfoot -19.605 -20.2892
rtoes 28.4167
lfemur -58.4828 15.878 -7.42257
ltibia 105.602
lfoot -34.9943 -15.9135
ltoes -1.71683
3640
root 15.4319 27.3754 46.7969 -368.023 -163.631 -352.391
lowerback 20.409 -1.11705 -7.93931
upperback -0.159874 -3.0687 9.46341
thorax -10.6717 -1.05046 15.9753
lowerneck 5.53452 2.46627 -10.6905
upperneck -6.42588 1.79242 -2.9258
head -3.16623 1.109 0.832541
rclavicle 4.09496e-014 6.83819e-014
rhumerus 69.1426 13.7404 -64.2947
rradius 67.0956
rwrist 19.9552
rhand -26.206 -18.3613
rfingers 7.12502
rthumb 0.34682 -48.3408
lclavicle 4.09496e-014 6.83819e-014
lhumerus 29.8155 -13.5856 80.2073
lradius 91.5282
lwrist -20.3725
lhand -46.6429 -21.8205
lfingers 7.12502
lthumb -19.3639 7.2354
rfemur -1.06719 -8.64321 34.8767
rtibia 18.8162
rfoot -19.3164 -20.0663
rtoes 27.6785
lfemur -58.637 15.6932 -7.53661
ltibia 105.003
lfoot -34.1729 -18.2801
ltoes -5.58106
3641
root 15.4249 27.3906 46.8163 -367.99 -163.971 -352.673
lowerback 20.1267 -1.02013 -8.2544
upperback -0.107686 -2.99343 9.41231
thorax -10.4745 -1.01266 16.0594
lowerneck 5.3029 2.47987 -10.7164
upperneck -6.07716 1.84309 -3.06141
head -3.00151 1.11701 0.791865
rclavicle 1.5704e-014 5.08889e-014
rhumerus 69.0304 13.8547 -64.1528
rradius 66.694
rwrist 19.6362
rhand -26.6021 -18.0806
rfingers 7.12502
rthumb -0.0357599 -48.0603
lclavicle 1.5704e-014 5.08889e-014
lhumerus 32.1553 -12.5768 79.6453
lradius 91.1978
lwrist -19.9442
lhand -48.1816 -23.4639
lfingers 7.12502
lthumb -20.8429 5.43656
rfemur -1.03208 -8.44981 34.5476
rtibia 18.8747
rfoot -19.0176 -19.9142
rtoes 27.1128
lfemur -58.6949 15.6384 -7.88848
ltibia 104.413
lfoot -33.4793 -20.2618
ltoes -1.86527
